<svg height="512pt" viewBox="0 -15 512 512" width="512pt" xmlns="http://www.w3.org/2000/svg"><path d="m470.199219 284.828125 2.796875-12.128906c15.328125-66.5-.253906-135.269531-42.746094-188.671875-42.492188-53.398438-106.003906-84.027344-174.25-84.027344s-131.757812 30.628906-174.25 84.027344c-42.492188 53.402344-58.070312 122.171875-42.742188 188.671875l2.792969 12.128906c-24.210937 7.726563-41.800781 30.429687-41.800781 57.171875v80c0 33.085938 26.914062 60 60 60h65c13.785156 0 25-11.214844 25-25v-150c0-13.785156-11.214844-25-25-25h-53.0625l-3.699219-16.039062c-13.261719-57.539063.21875-117.046876 36.988281-163.25 36.765626-46.210938 91.722657-72.710938 150.773438-72.710938s114.007812 26.5 150.773438 72.710938c36.769531 46.203124 50.25 105.710937 36.988281 163.25l-3.699219 16.039062h-53.0625c-13.785156 0-25 11.214844-25 25v150c0 13.785156 11.214844 25 25 25h65c33.085938 0 60-26.914062 60-60v-80c0-26.742188-17.589844-49.445312-41.800781-57.171875zm-440.199219 137.171875v-80c0-16.523438 13.429688-29.972656 29.949219-30 .011719 0 .023437.003906.039062.003906h.011719v139.996094c-16.542969 0-30-13.457031-30-30zm90 30h-30v-140h30zm302 0h-30v-140h30zm60-30c0 16.542969-13.457031 30-30 30v-140c16.542969 0 30 13.457031 30 30zm0 0"/></svg>