<svg height="512pt" viewBox="-91 0 512 512" width="512pt" xmlns="http://www.w3.org/2000/svg"><path d="m315 110h-55v-95c0-8.285156-6.714844-15-15-15s-15 6.714844-15 15v95h-130v-95c0-8.285156-6.714844-15-15-15s-15 6.714844-15 15v95h-55c-8.285156 0-15 6.714844-15 15v90c0 29.496094 7.882812 58.449219 22.796875 83.730469 14.464844 24.519531 35.144531 45.007812 59.796875 59.246093 23.074219 13.324219 37.40625 38.515626 37.40625 65.753907v73.269531c0 8.285156 6.714844 15 15 15h60c8.285156 0 15-6.714844 15-15v-73.269531c0-27.238281 14.332031-52.433594 37.40625-65.757813 24.652344-14.234375 45.332031-34.722656 59.796875-59.242187 14.914063-25.28125 22.796875-54.234375 22.796875-83.730469v-90c0-8.285156-6.714844-15-15-15zm-285 30h270v30h-270zm202.402344 191.996094c-32.324219 18.664062-52.402344 53.816406-52.402344 91.734375v58.269531h-30v-58.269531c0-37.917969-20.078125-73.070313-52.402344-91.734375-41.695312-24.078125-67.597656-68.910156-67.597656-116.996094v-15h270v15c0 48.085938-25.902344 92.917969-67.597656 116.996094zm0 0"/></svg>